<?xml version="1.0" encoding="UTF-8"?>
<svg width="25px" height="25px" viewBox="0 0 25 25" version="1.1" xmlns="http://www.w3.org/2000/svg" xmlns:xlink="http://www.w3.org/1999/xlink">
    <defs></defs>
    <g id="Process-Library" stroke="none" stroke-width="1" fill="none" fill-rule="evenodd">
        <g id="1-1-1-Home-Process-Library" transform="translate(-178.000000, -425.000000)" fill-rule="nonzero" fill="#29B6FF">
            <g id="Cover" transform="translate(0.000000, 61.000000)">
                <g id="features" transform="translate(164.000000, 332.000000)">
                    <g id="search" transform="translate(0.000000, 1.000000)">
                        <g id="ic-search" transform="translate(0.000000, 21.000000)">
                            <g transform="translate(14.000000, 10.000000)">
                                <path d="M24.7822222,24.781987 C24.4919169,25.072671 24.0210989,25.072671 23.7304029,24.781987 L16.7650305,17.8169003 C14.9849084,19.3539313 12.6945055,20.3162361 10.1583394,20.3162361 C4.54837606,20.3162361 0,15.7684373 0,10.1579227 C0,4.54701736 4.54837606,0 10.1583394,0 C15.7686935,0 20.3170696,4.54701736 20.3170696,10.1579227 C20.3170696,12.6943754 19.3543345,14.9842937 17.8176312,16.7647335 L24.7826129,23.7294294 C25.0725274,24.0201135 25.0725274,24.4909122 24.7822222,24.781987 Z M18.7537973,10.1579227 C18.7537973,5.41164612 14.9052015,1.56242674 10.1579487,1.56242674 C5.41108669,1.56242674 1.56249084,5.41164612 1.56249084,10.1579227 C1.56249084,14.9053714 5.41108669,18.7542001 10.1579487,18.7542001 C14.9052015,18.7542001 18.7537973,14.9057621 18.7537973,10.1579227 Z"></path>
                            </g>
                        </g>
                    </g>
                </g>
            </g>
        </g>
    </g>
</svg>